<?xml version="1.0" encoding="utf-8"?>
<svg width="14px" height="15px" viewbox="0 0 14 15" version="1.1" xmlns:xlink="http://www.w3.org/1999/xlink" xmlns="http://www.w3.org/2000/svg">
  <g id="calendar">
    <path d="M2.625 11.564C1.17957 11.5602 0.00768344 10.3914 0 8.946L0 2.646C0.00384637 1.19785 1.17685 0.0248464 2.625 0.021L3.325 0.021C3.58976 0.0517255 3.78948 0.275964 3.78948 0.5425C3.78948 0.809036 3.58976 1.03327 3.325 1.064L2.625 1.064C2.20305 1.06019 1.79738 1.22661 1.49967 1.52564C1.20196 1.82467 1.03733 2.23108 1.043 2.653L1.043 8.953C1.04298 9.3713 1.2101 9.77226 1.5072 10.0667C1.80429 10.3612 2.20672 10.5247 2.625 10.521L2.625 10.521L11.025 10.521C11.4421 10.521 11.842 10.3548 12.1362 10.0593C12.4305 9.7637 12.5949 9.36307 12.593 8.946L12.593 2.646C12.5949 2.22828 12.4307 1.82694 12.1366 1.53025C11.8426 1.23357 11.4427 1.06585 11.025 1.064L10.325 1.064C10.0378 1.06403 9.80383 0.833212 9.8 0.546C9.79624 0.403701 9.84967 0.265832 9.94833 0.163223C10.047 0.0606131 10.1827 0.0018234 10.325 0L11.025 0C12.4704 0.00382383 13.6423 1.17258 13.65 2.618L13.65 8.918C13.6575 9.61839 13.384 10.2926 12.8907 10.7898C12.3974 11.2871 11.7254 11.5659 11.025 11.564L2.625 11.564Z" transform="translate(0 2.4362793)" id="Path" fill="#2D2D2D" fill-rule="evenodd" stroke="none" />
    <path d="M0.525 1.05C0.23505 1.05 0 0.814949 0 0.525C0 0.23505 0.23505 8.64117e-09 0.525 0L3.325 0C3.61495 6.21725e-16 3.85 0.23505 3.85 0.525C3.85 0.814949 3.61495 1.05 3.325 1.05L0.525 1.05Z" transform="translate(4.899994 2.4501953)" id="Path" fill="#2D2D2D" fill-rule="evenodd" stroke="none" />
    <path d="M1.57505 4.55732C0.705197 4.55732 4.57443e-05 3.85217 4.57443e-05 2.98232L4.57443e-05 1.58232C-0.00221498 1.1656 0.161504 0.765119 0.455046 0.469322C0.745443 0.161908 1.15225 -0.00844158 1.57505 0.00032222C2.44059 0.00411829 3.14239 0.702801 3.15005 1.56832L3.15005 2.96832C3.15393 3.83933 2.45302 4.54962 1.58205 4.55732L1.57505 4.55732ZM1.57505 1.05732L1.57505 1.05732C1.44706 1.06208 1.3262 1.11747 1.23905 1.21132C1.1378 1.30781 1.08189 1.4425 1.08505 1.58232L1.08505 2.98232C1.08809 3.25644 1.30152 3.48206 1.57505 3.50032L1.57505 3.50032C1.86612 3.49649 2.10007 3.25943 2.10005 2.96832L2.10005 1.56832C2.09246 1.28385 1.85961 1.05722 1.57505 1.05732Z" transform="translate(2.7859497 0)" id="Shape" fill="#2D2D2D" stroke="none" />
    <path d="M1.575 4.543C1.15696 4.54497 0.755756 4.37844 0.462 4.081C0.166546 3.78591 0.000367609 3.38558 0 2.968L0 1.568C-1.24345e-15 0.702018 0.702017 0 1.568 0L1.568 0C2.43355 0.00379607 3.13535 0.702479 3.143 1.568L3.143 2.968C3.14486 3.38572 2.98071 3.78706 2.68665 4.08375C2.39259 4.38043 1.99272 4.54815 1.575 4.55L1.575 4.543ZM1.575 1.043L1.575 1.043C1.28779 1.04683 1.05697 1.28076 1.057 1.568L1.057 2.968C1.057 3.25795 1.29205 3.493 1.582 3.493L1.582 3.493C1.87195 3.493 2.107 3.25795 2.107 2.968L2.107 1.568C2.10701 1.42754 2.05074 1.29293 1.95076 1.19427C1.85079 1.09561 1.71545 1.04113 1.575 1.043L1.575 1.043Z" transform="translate(7.6859894 0.00024414062)" id="Shape" fill="#2D2D2D" stroke="none" />
    <path d="M0.525 1.05C0.235051 1.05 0 0.814949 0 0.525C0 0.23505 0.235051 0 0.525 0L13.125 0L13.125 0C13.415 0 13.65 0.23505 13.65 0.525C13.6539 0.665399 13.5998 0.801214 13.5005 0.900529C13.4012 0.999844 13.2654 1.0539 13.125 1.05L0.525 1.05Z" transform="translate(0 5.9501953)" id="Path" fill="#2D2D2D" fill-rule="evenodd" stroke="none" />
  </g>
</svg>