<?xml version="1.0" encoding="utf-8"?>
<svg width="20px" height="19px" viewbox="0 0 20 19" version="1.1" xmlns:xlink="http://www.w3.org/1999/xlink" xmlns="http://www.w3.org/2000/svg">
  <defs>
    <path d="M4.65482 5.54167L0.244078 9.73187C-0.0813592 10.041 -0.0813592 10.5423 0.244078 10.8515C0.569515 11.1606 1.09715 11.1606 1.42259 10.8515L6.42259 6.10146C6.74803 5.79229 6.74803 5.29104 6.42259 4.98187L1.42259 0.231874C1.09715 -0.0772913 0.569515 -0.0772913 0.244078 0.231874C-0.0813592 0.541039 -0.0813592 1.04229 0.244078 1.35146L4.65482 5.54167Z" transform="translate(6.6666665 3.9583335)" id="path_1" />
    <clipPath id="mask_1">
      <use xlink:href="#path_1" />
    </clipPath>
  </defs>
  <g id="chevron-right" transform="matrix(-1 0 0 1 20 0)">
    <path d="M4.65482 5.54167L0.244078 9.73187C-0.0813592 10.041 -0.0813592 10.5423 0.244078 10.8515C0.569515 11.1606 1.09715 11.1606 1.42259 10.8515L6.42259 6.10146C6.74803 5.79229 6.74803 5.29104 6.42259 4.98187L1.42259 0.231874C1.09715 -0.0772913 0.569515 -0.0772913 0.244078 0.231874C-0.0813592 0.541039 -0.0813592 1.04229 0.244078 1.35146L4.65482 5.54167Z" transform="translate(6.6666665 3.9583335)" id="Shape" fill="#000000" fill-rule="evenodd" stroke="none" />
    <g clip-path="url(#mask_1)">
      <g id="COLOR--black">
        <path d="M0 0L20 0L20 19L0 19L0 0Z" id="Rectangle" fill="#000000" fill-rule="evenodd" stroke="none" />
      </g>
    </g>
  </g>
</svg>