<?xml version="1.0" encoding="utf-8"?>
<svg width="8px" height="12px" viewbox="0 0 8 12" version="1.1" xmlns:xlink="http://www.w3.org/1999/xlink" xmlns="http://www.w3.org/2000/svg">
  <g id="Hourglass">
    <path d="M5.3295 5.33915C5.59195 5.0214 5.77415 4.63293 5.8491 4.20739C5.93355 3.72781 6 3.20569 6 2.75L6 0L0 0L0 2.75C0 3.20569 0.066445 3.72781 0.150895 4.20739C0.22583 4.63293 0.408035 5.0214 0.67051 5.33915C0.906275 5.6246 1.2068 5.853 1.55252 6C1.2068 6.147 0.906275 6.3754 0.67051 6.66085C0.408035 6.9786 0.22583 7.36705 0.150895 7.7926C0.066445 8.2722 0 8.7943 0 9.25L0 12L6 12L6 9.25C6 8.7943 5.93355 8.2722 5.8491 7.7926C5.77415 7.36705 5.59195 6.9786 5.3295 6.66085C5.09375 6.3754 4.7932 6.147 4.4475 6C4.7932 5.853 5.09375 5.6246 5.3295 5.33915ZM5 11L5 9.25C5 8.8784 4.94445 8.42135 4.86425 7.96605C4.77875 7.4803 4.46485 7.09405 4.0562 6.92025L3 6.47115L1.94383 6.92025C1.53513 7.09405 1.22127 7.4803 1.13575 7.96605C1.05557 8.42135 1 8.8784 1 9.25L1 11L5 11ZM3 5.52885L4.0562 5.07975C4.46485 4.90596 4.77875 4.51968 4.86425 4.03397C4.94445 3.57866 5 3.12161 5 2.75L5 1L1 1L1 2.75C1 3.12161 1.05557 3.57866 1.13575 4.03397C1.22127 4.51968 1.53513 4.90596 1.94383 5.07975L3 5.52885Z" transform="translate(1 0)" id="Shape" fill="#2D2D2D" fill-rule="evenodd" stroke="none" />
    <path d="M0 0.5C0 0.22385 0.22386 0 0.5 0L7.5 0C7.77615 0 8 0.22385 8 0.5L8 0.5C8 0.77615 7.77615 1 7.5 1L0.5 1C0.22386 1 0 0.77615 0 0.5L0 0.5Z" transform="translate(0 11)" id="Path" fill="#2D2D2D" fill-rule="evenodd" stroke="none" />
    <path d="M0 0.5C0 0.223858 0.22386 0 0.5 0L7.5 0C7.77615 0 8 0.223858 8 0.5L8 0.5C8 0.77614 7.77615 1 7.5 1L0.5 1C0.22386 1 0 0.77614 0 0.5L0 0.5Z" id="Path" fill="#2D2D2D" fill-rule="evenodd" stroke="none" />
    <path d="M0 1.38196C0 1.07551 0.17313 0.795413 0.447215 0.658363L1.5528 0.105563C1.8343 -0.0351875 2.1657 -0.0351875 2.4472 0.105563L3.5528 0.658363C3.82685 0.795413 4 1.07551 4 1.38196L4 1.38196L0 1.38196L0 1.38196Z" transform="translate(2 9.618037)" id="Path" fill="#2D2D2D" fill-rule="evenodd" stroke="none" />
  </g>
</svg>